<?xml version="1.0" encoding="UTF-8"?><svg id="Layer_2" xmlns="http://www.w3.org/2000/svg" viewBox="0 0 981.21 141.61"><defs><style>.cls-1{fill:#fff;}</style></defs><g id="Layer_1-2"><g><polygon class="cls-1" points="809.27 49.68 789.67 49.68 789.65 34.9 770.24 34.9 770.24 138.84 789.76 138.84 789.69 67.46 809.27 67.46 809.27 49.68"/><path class="cls-1" d="M819.21,32.08c-.96,0-9.94,.09-9.94,.09v17.75s7.62,0,7.88,0c17.26,0,25.89,10.32,25.89,32.27v56.66h19.51v-62.29c0-28.71-18.39-44.47-43.34-44.47"/><polygon class="cls-1" points="439.89 49.68 147.32 49.68 147.3 34.88 127.86 34.88 127.86 138.96 147.4 138.96 147.33 67.47 439.89 67.47 439.89 49.68"/><path class="cls-1" d="M515.43,32.06c-16.53,0-26.87,5.64-34.38,17.47-5.26-10.9-18.79-17.47-32.31-17.47-.7,0-8.85,.05-8.85,.05v17.57h6.78c13.58,.34,22.73,8.77,22.73,28.78v60.5h19.54v-58.62c0-20.85,7.52-30.44,24.8-30.44,16.34,0,24.61,11.09,24.61,30.81v58.24h19.54v-63.12c0-26.87-15.41-43.78-42.46-43.78"/><rect class="cls-1" x="731.21" y="30.57" width="19.51" height="108.27"/><rect class="cls-1" x="731.57" width="19.51" height="18.56"/><path class="cls-1" d="M88.68,30.57h19.51v108.27h-19.51V30.57Zm0-30.57h19.51V18.56h-19.51V0Z"/><rect class="cls-1" x="692.18" width="19.51" height="138.84"/><g><path class="cls-1" d="M977.84,106.34c-8.07,21.39-27.58,35.27-49.91,35.27-26.61,0-48.56-21.41-52.33-46.16h18.93c4.5,17.26,18.2,28.33,34.15,28.33,12.2,0,23.64-6.38,29.64-17.45h19.51Z"/><path class="cls-1" d="M927.37,32.23c-25.43,0-48.46,19.46-51.9,48.22h19.07c1.5-17.82,17.45-30.39,33.4-30.39s32.27,12.76,33.77,30.39h-67.17v15.01h86.12c.56-3.56,.56-6.57,.56-9.76,0-29.83-23.27-53.47-53.85-53.47"/><path class="cls-1" d="M673.23,106.34c-8.07,21.39-27.58,35.27-49.91,35.27-26.61,0-48.56-21.41-52.33-46.16h18.93c4.5,17.26,18.2,28.33,34.15,28.33,12.2,0,23.64-6.38,29.64-17.45h19.51Z"/><path class="cls-1" d="M622.75,32.23c-25.43,0-48.46,19.46-51.9,48.22h19.07c1.5-17.82,17.45-30.39,33.4-30.39s32.27,12.76,33.77,30.39h-67.17v15.01h86.12c.56-3.56,.56-6.57,.56-9.76,0-29.83-23.27-53.47-53.85-53.47"/></g><polygon class="cls-1" points="26.64 138.84 26.64 18.58 0 18.58 0 0 73.55 0 73.55 18.58 46.91 18.58 46.91 138.84 26.64 138.84"/></g></g></svg>