<?xml version="1.0" encoding="UTF-8"?><svg id="Layer_2" xmlns="http://www.w3.org/2000/svg" viewBox="0 0 208.16 68.61"><defs><style>.cls-1{fill:#fff;}</style></defs><g id="Layer_1-2"><g><path class="cls-1" d="M199.28,64.52h1.98v-5.98h6.47v-1.71h-6.47v-4.21h6.9v-1.72h-8.88v13.62Zm-6.18,0h1.85v-2.83h2.03v-1.67h-2.04v-3.82h-1.79v3.82h-4.19v-.13l4.46-9.17h-2.02l-4.54,9.39v1.59h6.25v2.83Zm-14.76,2.25c1-1.39,1.65-3.45,1.82-5.25h-1.96c-.1,1.27-.37,2.98-1.41,5.25h1.55Zm-9.81-2.25h1.98v-5.98h6.46v-1.71h-6.46v-4.21h6.9v-1.72h-8.88v13.62Zm-12.2-9.84v.06h1.88v-.06c0-1.54,1.01-2.56,2.54-2.56s2.52,.92,2.52,2.34c0,1.04-.44,1.77-2.23,3.71l-4.62,4.99v1.37h9.03v-1.74h-6.24v-.16l3.08-3.28c2.25-2.35,2.94-3.54,2.94-4.99,0-2.33-1.79-3.91-4.42-3.91s-4.49,1.76-4.49,4.25m-15.8,9.84h1.94v-5.33c0-1.96,.73-3.25,2.47-3.25,1.47,0,2.02,.98,2.02,2.41v6.17h1.92v-6.41c0-2.63-1.43-3.8-3.33-3.8s-2.7,.98-3.08,1.8c0-.29-.04-1.27-.08-1.57h-1.88c.02,.76,.02,1.65,.02,2.51v7.46Zm-9.73-5.05c0-2.12,.94-3.55,2.67-3.55,2.06,0,2.59,1.29,2.59,3.43s-.59,3.49-2.65,3.49c-1.57,0-2.61-1.33-2.61-3.37m7.07-2.04c0-.96,.02-2.25,.02-2.88h-1.82c-.02,.2-.06,.84-.08,1.27-.21-.63-1-1.51-2.86-1.51-2.43,0-4.33,2.02-4.33,5.23,0,2.88,1.65,4.92,4.13,4.92,1.63,0,2.53-.63,3.06-1.68v.74c0,2.23-.51,3.61-2.68,3.61-1.25,0-2.06-.57-2.33-1.59h-1.96c.18,1.31,1.06,3.08,4.19,3.08,3.37,0,4.66-1.86,4.66-5.05v-6.13Zm-11.06-7.27h-1.92v2.21h1.92v-2.21Zm-1.92,14.36h1.92v-9.97h-1.92v9.97Zm-10.08-2.88c.26,1.78,1.51,3.12,4.17,3.12s3.96-1.31,3.96-3.06c0-1.47-.57-2.51-3.66-3.23-1.78-.43-2.17-.76-2.17-1.47,0-.61,.39-1.23,1.7-1.23,1.49,0,1.92,.86,2.06,1.45h1.84c-.12-1.37-1.16-2.9-3.82-2.9s-3.68,1.43-3.68,2.84,.57,2.27,3.51,2.98c1.8,.45,2.25,.84,2.25,1.72s-.53,1.41-1.9,1.41c-1.29,0-2.08-.59-2.33-1.63h-1.92Zm-8.16-3.06c.16-1.63,.88-2.78,2.57-2.78s2.39,1.23,2.41,2.78h-4.98Zm6.88,1.31c.04-.28,.04-.51,.04-.82,0-2.2-1.08-4.76-4.33-4.76-3.08,0-4.58,2.33-4.58,5.33,0,2.59,1.31,5.11,4.47,5.11,2.82,0,3.88-1.76,4.27-3.04h-1.94c-.29,.71-.78,1.45-2.27,1.45-1.63,0-2.57-1.39-2.59-3.27h6.94Zm-19.78-7.29h2.74c3.19,0,4.53,2.39,4.53,5,0,3-1.45,5.23-4.54,5.23h-2.72v-10.23Zm-2.02,11.91h4.88c4,0,6.52-2.94,6.52-6.96s-2.59-6.66-6.45-6.66h-4.96v13.62Zm-8.35,0v-8.44h1.96v-1.53h-1.96v-1c0-1.39,.37-1.94,1.35-1.94,.27,0,.61,.02,.82,.08v-1.61c-.24-.08-.75-.12-1.14-.12-2.19,0-2.96,1.57-2.96,3.45v1.14h-1.57v1.53h1.57v8.44h1.92Zm-9.02-8.62c1.76,0,2.74,1.43,2.74,3.64s-.98,3.62-2.7,3.62-2.74-1.51-2.74-3.64,.94-3.62,2.7-3.62m.08-1.59c-3.04,0-4.76,2.27-4.76,5.23s1.74,5.21,4.64,5.21c3.08,0,4.74-2.33,4.74-5.25,0-3.11-1.82-5.19-4.62-5.19m-17.67,4.27c.16-1.63,.88-2.78,2.57-2.78s2.39,1.23,2.41,2.78h-4.98Zm6.88,1.31c.04-.28,.04-.51,.04-.82,0-2.2-1.08-4.76-4.33-4.76-3.08,0-4.58,2.33-4.58,5.33,0,2.59,1.31,5.11,4.47,5.11,2.82,0,3.88-1.76,4.27-3.04h-1.94c-.29,.71-.78,1.45-2.27,1.45-1.63,0-2.57-1.39-2.59-3.27h6.94Zm-17.92-.43c0-2.12,.94-3.55,2.66-3.55,2.06,0,2.59,1.29,2.59,3.43s-.59,3.49-2.65,3.49c-1.57,0-2.61-1.33-2.61-3.37m7.07-2.04c0-.96,.02-2.25,.02-2.88h-1.82c-.02,.2-.06,.84-.08,1.27-.22-.63-1-1.51-2.86-1.51-2.43,0-4.33,2.02-4.33,5.23,0,2.88,1.65,4.92,4.13,4.92,1.63,0,2.53-.63,3.06-1.68v.74c0,2.23-.51,3.61-2.68,3.61-1.25,0-2.06-.57-2.33-1.59h-1.96c.18,1.31,1.06,3.08,4.19,3.08,3.37,0,4.66-1.86,4.66-5.05v-6.13Zm-17.45,1.16c.16-1.63,.88-2.78,2.57-2.78s2.39,1.23,2.41,2.78h-4.98Zm6.88,1.31c.04-.28,.04-.51,.04-.82,0-2.2-1.08-4.76-4.33-4.76-3.08,0-4.58,2.33-4.58,5.33,0,2.59,1.31,5.11,4.47,5.11,2.82,0,3.88-1.76,4.27-3.04h-1.94c-.29,.71-.78,1.45-2.27,1.45-1.63,0-2.57-1.39-2.59-3.27h6.94Zm-10.86-9.74h-1.92v14.36h1.92v-14.36Zm-4.6,0h-1.92v14.36h1.92v-14.36Zm-8.61,5.74c1.76,0,2.74,1.43,2.74,3.64s-.98,3.62-2.7,3.62-2.74-1.51-2.74-3.64,.94-3.62,2.7-3.62m.08-1.59c-3.04,0-4.76,2.27-4.76,5.23s1.74,5.21,4.64,5.21c3.08,0,4.74-2.33,4.74-5.25,0-3.11-1.82-5.19-4.62-5.19m-8.2,6.29c-.47,1.22-1.33,2.43-3.39,2.43-3.04,0-4.13-2.72-4.13-5.33s1.16-5.33,4.06-5.33c2.1,0,3.02,1.1,3.47,2.51h2.02c-.37-2.27-2.12-4.17-5.41-4.17-4.19,0-6.25,3.35-6.25,7.05s2.06,6.94,6.17,6.94c3.13,0,4.9-1.74,5.49-4.1h-2.02Z"/><path class="cls-1" d="M156.38,29.76l3.72,10.34c-.55,1.55-1.04,2.08-2.25,2.08-.26,0-.55-.02-.8-.06v1.65c.41,.04,.82,.06,1.12,.06,2.12,0,2.88-.76,3.88-3.66l3.55-10.4h-1.94c-1.55,4.86-2.23,7.13-2.53,8.25h-.02c-.26-1-1.14-3.74-2.65-8.25h-2.08Zm-6.63,1.53h1.68v6.05c0,1.68,.67,2.53,2.31,2.53,.49,0,1.1-.02,1.55-.18v-1.43c-.26,.08-.59,.08-.82,.08-.88,0-1.12-.45-1.12-1.39v-5.66h2.16v-1.53h-2.16v-2.9h-1.92v2.9h-1.68v1.53Zm-1.52-5.92h-1.92v2.21h1.92v-2.21Zm-1.92,14.36h1.92v-9.97h-1.92v9.97Zm-10.08-2.88c.25,1.78,1.51,3.11,4.17,3.11s3.96-1.31,3.96-3.06c0-1.47-.57-2.51-3.66-3.23-1.78-.43-2.17-.76-2.17-1.47,0-.61,.39-1.23,1.7-1.23,1.49,0,1.92,.86,2.06,1.45h1.84c-.12-1.37-1.16-2.9-3.82-2.9s-3.68,1.43-3.68,2.84,.57,2.27,3.51,2.98c1.8,.45,2.25,.84,2.25,1.72s-.53,1.41-1.9,1.41c-1.29,0-2.08-.59-2.33-1.63h-1.92Zm-6.03,2.88h1.92v-4.74c0-2.57,1.29-3.53,3.33-3.57v-1.9c-1.67,.04-2.82,.9-3.33,2.21,0-.88-.02-1.7-.06-1.98h-1.88c0,.59,.02,1.39,.02,2.7v7.27Zm-8.87-5.94c.16-1.63,.88-2.78,2.57-2.78s2.39,1.24,2.41,2.78h-4.98Zm6.88,1.31c.04-.27,.04-.51,.04-.82,0-2.19-1.08-4.76-4.33-4.76-3.08,0-4.58,2.33-4.58,5.33,0,2.59,1.31,5.11,4.47,5.11,2.82,0,3.88-1.76,4.27-3.04h-1.94c-.29,.71-.78,1.45-2.27,1.45-1.63,0-2.57-1.39-2.59-3.27h6.93Zm-18.74-5.35l3.47,9.97h2.08l3.64-9.97h-1.94c-1.37,4-2.43,6.99-2.67,8.21h-.02c-.29-1.24-1.24-4.27-2.51-8.21h-2.06Zm-1.54-4.39h-1.92v2.21h1.92v-2.21Zm-1.92,14.36h1.92v-9.97h-1.92v9.97Zm-11,0h1.94v-5.33c0-1.96,.72-3.25,2.47-3.25,1.47,0,2.02,.98,2.02,2.41v6.17h1.92v-6.41c0-2.62-1.43-3.8-3.33-3.8s-2.7,.98-3.08,1.8c0-.29-.04-1.27-.08-1.57h-1.88c.02,.76,.02,1.65,.02,2.51v7.46Zm-13.35-13.62v8.19c0,4.25,2.49,5.6,5.37,5.6s5.41-1.25,5.41-5.72v-8.07h-2.02v8.19c0,3.02-1.37,3.94-3.35,3.94-1.68,0-3.37-.84-3.37-3.94v-8.19h-2.04Zm-15.93,13.62h1.94v-5.33c0-1.96,.72-3.25,2.47-3.25,1.47,0,2.02,.98,2.02,2.41v6.17h1.92v-6.41c0-2.62-1.43-3.8-3.33-3.8s-2.7,.98-3.08,1.8c0-.29-.04-1.27-.08-1.57h-1.88c.02,.76,.02,1.65,.02,2.51v7.46Zm-2.67-14.36h-1.92v2.21h1.92v-2.21Zm-1.92,14.36h1.92v-9.97h-1.92v9.97Zm-16.49,0h1.9v-5.52c0-1.86,.72-3.06,2.23-3.06s1.84,1.1,1.84,2.33v6.25h1.88v-5.72c0-1.72,.67-2.86,2.19-2.86s1.88,1.16,1.88,2.25v6.33h1.88v-6.54c0-2.68-1.51-3.66-3.15-3.66s-2.61,.8-3.15,1.72c-.37-1-1.31-1.72-2.72-1.72-1.55,0-2.41,.84-2.88,1.7,0-.49-.04-1.18-.08-1.47h-1.84c.02,.82,.02,1.71,.02,2.57v7.41Zm-7.89-14.36h-1.92v14.36h1.92v-3.47l1.45-1.41,3.19,4.88h2.23l-4.11-6.11,3.7-3.86h-2.27c-1.35,1.51-3.37,3.66-4.19,4.64v-9.03Zm-8.61,5.74c1.76,0,2.74,1.43,2.74,3.64s-.98,3.62-2.7,3.62-2.74-1.51-2.74-3.64,.94-3.62,2.7-3.62m.08-1.59c-3.04,0-4.76,2.27-4.76,5.23s1.74,5.21,4.64,5.21c3.08,0,4.74-2.33,4.74-5.25,0-3.11-1.82-5.19-4.62-5.19m-10.89,1.59c1.76,0,2.74,1.43,2.74,3.64s-.98,3.62-2.7,3.62-2.74-1.51-2.74-3.64,.94-3.62,2.7-3.62m.08-1.59c-3.04,0-4.76,2.27-4.76,5.23s1.74,5.21,4.64,5.21c3.08,0,4.74-2.33,4.74-5.25,0-3.11-1.82-5.19-4.62-5.19M1.14,39.73h2v-5.03l1.68-1.55,5.02,6.58h2.45l-6.05-7.88,5.78-5.74h-2.49c-2.06,2.17-5.39,5.52-6.39,6.56v-6.56H1.14v13.62Z"/><path class="cls-1" d="M188.17,13.69c0-.85,1.21-1.28,3.64-1.28s3.6,.43,3.6,1.28c0,.42-.3,.73-.91,.94-.61,.21-1.51,.32-2.69,.32s-2.09-.11-2.71-.32c-.62-.21-.93-.53-.93-.94m-1.98,0c0,.88,.49,1.55,1.47,2.01,.98,.46,2.36,.7,4.15,.7s3.15-.23,4.13-.7c.98-.47,1.47-1.14,1.47-2s-.49-1.55-1.47-2.03c-.98-.48-2.36-.71-4.13-.71s-3.16,.24-4.15,.71c-.98,.48-1.47,1.15-1.47,2.03m-1.01-7.74l.59,1.5c1.44-.12,2.68-.4,3.72-.83,1.04-.43,1.82-1,2.33-1.69,.5,.7,1.27,1.26,2.32,1.69,1.04,.43,2.28,.71,3.72,.83l.57-1.5c-1.62-.11-2.91-.42-3.88-.92-.96-.51-1.51-1.11-1.63-1.82h4.81V1.67h-4.94V.15h-1.96V1.67h-4.92v1.54h4.79c-.13,.71-.68,1.32-1.65,1.82-.96,.51-2.26,.81-3.88,.92m-.71,3.88h14.69v-1.56h-14.69v1.56Zm-5.04,5.12h1.85v-2.83h2.03v-1.67h-2.04v-3.82h-1.79v3.82h-4.19v-.13l4.46-9.16h-2.02l-4.54,9.39v1.59h6.25v2.83Zm-14.76,2.25c1-1.39,1.64-3.45,1.82-5.25h-1.96c-.1,1.27-.37,2.98-1.41,5.25h1.55Zm-13.12-3.52c0-.85,1.21-1.28,3.64-1.28s3.6,.43,3.6,1.28c0,.42-.3,.73-.91,.94-.61,.21-1.51,.32-2.69,.32s-2.09-.11-2.71-.32c-.62-.21-.93-.53-.93-.94m-1.98,0c0,.88,.49,1.55,1.47,2.01,.98,.46,2.36,.7,4.15,.7s3.14-.23,4.13-.7c.98-.47,1.47-1.14,1.47-2s-.49-1.55-1.47-2.03c-.98-.48-2.36-.71-4.13-.71s-3.16,.24-4.15,.71c-.98,.48-1.47,1.15-1.47,2.03m-1.01-7.74l.59,1.5c1.44-.12,2.68-.4,3.72-.83,1.04-.43,1.82-1,2.33-1.69,.5,.7,1.27,1.26,2.31,1.69,1.04,.43,2.29,.71,3.72,.83l.57-1.5c-1.62-.11-2.91-.42-3.88-.92-.96-.51-1.51-1.11-1.63-1.82h4.81V1.67h-4.94V.15h-1.96V1.67h-4.92v1.54h4.79c-.13,.71-.68,1.32-1.65,1.82-.96,.51-2.26,.81-3.88,.92m-.71,3.88h14.69v-1.56h-14.69v1.56Zm-11.06-4.72v.06h1.88v-.06c0-1.54,1.01-2.56,2.54-2.56s2.52,.92,2.52,2.33c0,1.04-.44,1.77-2.23,3.71l-4.62,4.99v1.37h9.03v-1.74h-6.24v-.16l3.08-3.28c2.25-2.35,2.94-3.54,2.94-4.99,0-2.32-1.79-3.91-4.42-3.91s-4.49,1.76-4.49,4.25m-10.54,7.24h1.98V6.86h2.12v-1.61h-2.12V.15h-1.98V12.35Zm-8.62,3.75h11.13v-1.59h-9.17v-3.26h-1.96v4.85Zm-2.43-7.69l.2,1.57c1.83,0,3.58-.05,5.25-.14,1.67-.09,3.26-.27,4.76-.54l-.13-1.41c-1.4,.2-3.06,.34-4.96,.42v-3.26h-1.96v3.31c-.76,.03-1.81,.04-3.17,.04m.99-7.06v1.59h6.29c-.03,1.38-.16,2.69-.4,3.93l1.92,.22c.17-.91,.28-1.73,.33-2.46,.05-.72,.07-1.5,.07-2.32v-.97h-8.22Zm-11.98,12.22c0-.43,.3-.75,.89-.97,.59-.22,1.44-.33,2.55-.33s1.96,.11,2.54,.33c.59,.22,.88,.54,.88,.97s-.3,.77-.89,.99c-.59,.22-1.44,.33-2.53,.33s-1.95-.11-2.54-.33c-.6-.22-.9-.55-.9-.99m-1.94-6.57c0-.48,.17-.85,.52-1.12,.35-.28,.81-.41,1.4-.41s1.04,.14,1.39,.41c.35,.27,.53,.65,.53,1.12s-.18,.87-.53,1.15c-.35,.28-.82,.42-1.39,.42s-1.05-.14-1.4-.42-.52-.66-.52-1.15m-.13,6.57c0,.88,.49,1.57,1.47,2.07,.98,.5,2.33,.75,4.04,.75s3.05-.25,4.03-.75c.98-.5,1.47-1.19,1.47-2.07s-.49-1.57-1.47-2.07c-.98-.5-2.33-.75-4.03-.75s-3.05,.25-4.04,.75c-.98,.5-1.47,1.19-1.47,2.07m-1.7-6.57c0,.6,.16,1.13,.47,1.59s.76,.82,1.34,1.08c.57,.26,1.22,.38,1.94,.38s1.38-.13,1.95-.38c.57-.26,1.01-.62,1.33-1.08,.32-.46,.48-.99,.48-1.59s-.16-1.11-.48-1.57c-.32-.46-.76-.81-1.33-1.07-.57-.26-1.22-.38-1.95-.38s-1.37,.13-1.94,.38c-.57,.26-1.02,.61-1.34,1.07-.32,.46-.47,.98-.47,1.57m-.84-3.7h9.02V1.76h-3.42V0h-1.98V1.76h-3.62v1.56Zm9.15,.55v1.57h2.36v1.65h-2.4v1.57h2.4v1.92h1.96V.15h-1.96V3.86h-2.36Zm-24.34,4.32l.79,1.55c1.34-.27,2.54-.76,3.6-1.47,1.06-.71,1.84-1.58,2.35-2.59,.52,1.01,1.31,1.87,2.37,2.56,1.06,.7,2.27,1.17,3.63,1.43l.79-1.55c-1.09-.17-2.06-.5-2.94-1-.87-.49-1.56-1.09-2.07-1.8-.51-.71-.77-1.45-.78-2.23h5.11V1.48h-12.26v1.59h5.11c-.01,.78-.27,1.53-.77,2.24-.5,.71-1.18,1.33-2.04,1.84-.86,.51-1.82,.85-2.88,1.02m-.64,4.65v1.61h14.73v-1.61h-6.37v-3.75h-1.98v3.75h-6.39Zm-20.54,1.48h14.71v-1.61h-5.43V7.47h-1.92v5.23h-2.1V7.47h-1.94v5.23h-3.31v1.61Zm1.46-12.68v1.59h9.79v.07c0,1.35-.03,2.56-.09,3.62-.06,1.06-.21,2.25-.46,3.57l1.94,.2c.26-1.4,.42-2.64,.48-3.72,.06-1.07,.09-2.3,.09-3.68V1.63h-11.75Zm-6.51,8.71h1.98V6.09h2.25v-1.63h-2.25V.15h-1.98V10.34Zm-8.01-3.44c0-.46,.19-.83,.57-1.09,.38-.26,.88-.39,1.5-.39s1.14,.13,1.51,.39c.37,.26,.56,.62,.56,1.09s-.19,.81-.57,1.07c-.38,.26-.88,.39-1.5,.39s-1.12-.13-1.5-.39c-.38-.26-.57-.62-.57-1.07m-.73,5.78h8.75v3.73h1.98v-5.32h-10.72v1.59Zm-1.13-5.78c0,.59,.16,1.1,.49,1.55,.33,.45,.79,.79,1.39,1.03,.6,.24,1.28,.37,2.05,.37s1.47-.12,2.07-.37c.6-.24,1.06-.59,1.4-1.03,.34-.45,.5-.96,.5-1.55s-.17-1.11-.5-1.56c-.34-.46-.81-.81-1.41-1.06-.6-.25-1.29-.38-2.06-.38s-1.45,.12-2.05,.38c-.6,.25-1.06,.6-1.39,1.06-.33,.46-.49,.98-.49,1.56m-.86-5.2v1.56h9.59V1.7h-3.81V.05h-1.96V1.7h-3.82Zm-15.3,10.89h1.1c1.26,0,2.32-.03,3.2-.08,.88-.05,1.78-.17,2.69-.36l-.2-1.61c-.77,.15-1.53,.25-2.3,.31-.76,.06-1.61,.1-2.55,.11V3.66h4.06v-1.59h-6V12.59ZM43.64,.15V6.51h-1.83V.46h-1.83V15.61h1.83v-7.48h1.83v8.29h1.87V.15h-1.87ZM27.26,11.77h1.98V.17h-1.98V11.77Zm-8.67,4.21h11.13v-1.57h-9.17v-3.71h-1.96v5.29Zm-.02-12.94h3.9V7.65h-3.9V3.04Zm-1.92,6.18h7.74V1.48h-7.74v7.74ZM1.85,.9v1.57H11c0,.71-.02,1.38-.07,2.01-.05,.63-.15,1.33-.31,2.09H0v1.59H6.39v2.6H1.52v1.56H11.03v4.1h1.96v-5.65h-4.65v-2.6h6.39v-1.59h-2.16c.16-.8,.26-1.53,.3-2.19,.04-.65,.06-1.4,.06-2.24V.9H1.85Z"/></g></g></svg>