<?xml version="1.0" encoding="UTF-8"?><svg id="Layer_2" xmlns="http://www.w3.org/2000/svg" viewBox="0 0 317.84 111.64"><defs><style>.cls-1{fill:#fff;}</style></defs><g id="Layer_1-2"><g><polygon class="cls-1" points="4.65 24.28 4.65 3.29 0 3.29 0 .05 12.83 .05 12.83 3.29 8.18 3.29 8.18 24.28 4.65 24.28"/><path class="cls-1" d="M49.78,14.06c-.26-3.08-2.98-5.3-5.89-5.3s-5.57,2.19-5.83,5.3h11.72Zm-11.72,2.62c.79,3.01,3.17,4.94,5.96,4.94,2.13,0,4.12-1.11,5.17-3.05h3.41c-1.41,3.73-4.81,6.16-8.71,6.16-5.11,0-9.23-4.52-9.23-9.36,0-5.73,4.32-9.72,9.13-9.72,5.34,0,9.4,4.12,9.4,9.33,0,.56,0,1.08-.1,1.7h-15.03Z"/><polygon class="cls-1" points="67.14 24.28 67.14 3.16 63.57 3.16 63.57 .05 70.54 .05 70.54 24.28 67.14 24.28"/><polygon class="cls-1" points="77.93 24.28 87.06 3.16 76.55 3.16 76.55 .05 90.6 .05 90.6 3.16 81.73 24.28 77.93 24.28"/><polygon class="cls-1" points="94.66 24.28 94.66 9.25 92.2 9.25 92.2 6.14 94.66 6.14 94.66 .05 98.06 .05 98.06 6.14 101.04 6.14 101.04 9.25 98.06 9.25 98.06 24.28 94.66 24.28"/><path class="cls-1" d="M145.36,3.29V.05h-13.06V13.98h3.54V3.29h9.53Zm0,7.14h-9.53v3.24h9.53v-3.24Zm-9.53,3.25h-3.54v10.59h13.06v-3.24h-9.53v-7.35Z"/><polygon class="cls-1" points="159.76 24.28 155.28 17.83 150.89 24.28 146.93 24.28 153.22 14.98 147.16 6.14 151.28 6.14 155.28 12.1 159.24 6.14 163.36 6.14 157.44 14.98 163.76 24.28 159.76 24.28"/><polygon class="cls-1" points="224.14 24.28 224.14 9.25 221.69 9.25 221.69 6.14 224.14 6.14 224.14 .05 227.55 .05 227.55 6.14 230.53 6.14 230.53 9.25 227.55 9.25 227.55 24.28 224.14 24.28"/><g><path class="cls-1" d="M249.34,8.76c-3.4,0-6.35,2.88-6.35,6.42s2.85,6.45,6.29,6.45,6.48-2.81,6.48-6.48-2.85-6.38-6.42-6.38m-.1,15.97c-5.11,0-9.66-4.35-9.66-9.46,0-5.53,4.35-9.62,9.92-9.62,5.01,0,9.72,3.93,9.66,9.69-.07,4.84-4.12,9.39-9.92,9.39"/><path class="cls-1" d="M298.2,8.76c-3.4,0-6.35,2.88-6.35,6.42s2.85,6.45,6.29,6.45,6.48-2.81,6.48-6.48-2.85-6.38-6.42-6.38m-.1,15.97c-5.11,0-9.66-4.35-9.66-9.46,0-5.53,4.35-9.62,9.92-9.62,5.01,0,9.72,3.93,9.66,9.69-.07,4.84-4.12,9.39-9.92,9.39"/><path class="cls-1" d="M311.26,24.28V9.25h-1.6v-3.11h1.6v-.82c0-3.47,2.45-5.27,5.83-5.27h.75V3.16c-2.23,0-3.18,.79-3.18,2.13v.85h3.18v3.11h-3.18v15.03h-3.4Z"/><path class="cls-1" d="M23.7,57.51c-2.46,4.22-6.35,6.45-11.2,6.45-6.71,0-12.24-6.02-12.24-12.47,0-7.3,5.76-12.67,12.28-12.67,4.58,0,8.87,2.09,11.33,6.65h-4.26c-1.83-2.13-3.96-3.4-6.81-3.4-5.07,0-9,4.29-9,9.1,0,5.07,3.83,9.56,8.81,9.56,2.52,0,4.78-.98,6.74-3.21h4.35Z"/><path class="cls-1" d="M34.8,47.98c-3.4,0-6.35,2.88-6.35,6.42s2.85,6.45,6.29,6.45,6.48-2.82,6.48-6.48-2.85-6.38-6.42-6.38m-.1,15.97c-5.11,0-9.66-4.35-9.66-9.46,0-5.53,4.35-9.62,9.92-9.62,5.01,0,9.72,3.93,9.66,9.69-.07,4.84-4.12,9.39-9.92,9.39"/></g><rect class="cls-1" x="47.76" y="39.28" width="3.41" height="24.22"/><rect class="cls-1" x="55.22" y="39.28" width="3.41" height="24.22"/><g><path class="cls-1" d="M141.86,47.98c-3.4,0-6.35,2.88-6.35,6.42s2.85,6.45,6.29,6.45,6.48-2.82,6.48-6.48-2.85-6.38-6.42-6.38m-.1,15.97c-5.11,0-9.66-4.35-9.66-9.46,0-5.53,4.35-9.62,9.92-9.62,5.01,0,9.72,3.93,9.66,9.69-.07,4.84-4.12,9.39-9.92,9.39"/><path class="cls-1" d="M209.15,53.34c-.26-3.08-2.98-5.3-5.89-5.3s-5.56,2.19-5.83,5.3h11.72Zm-11.72,2.62c.79,3.01,3.17,4.94,5.96,4.94,2.13,0,4.12-1.11,5.17-3.05h3.41c-1.41,3.73-4.81,6.16-8.71,6.16-5.11,0-9.23-4.52-9.23-9.36,0-5.73,4.32-9.72,9.13-9.72,5.34,0,9.4,4.12,9.4,9.33,0,.56,0,1.08-.1,1.7h-15.03Z"/></g><path class="cls-1" d="M12.8,105.58l-9.2-12.21,9.2-12.01h4.35l-9.46,12.01,9.46,12.21h-4.35ZM0,81.36H3.53v24.22H0v-24.22Z"/><g><path class="cls-1" d="M26.48,90.06c-3.4,0-6.35,2.88-6.35,6.42s2.85,6.45,6.29,6.45,6.48-2.82,6.48-6.48-2.85-6.38-6.42-6.38m-.1,15.97c-5.11,0-9.66-4.35-9.66-9.46,0-5.53,4.35-9.62,9.92-9.62,5.01,0,9.72,3.93,9.66,9.69-.07,4.84-4.12,9.39-9.92,9.39"/><path class="cls-1" d="M48.25,90.06c-3.4,0-6.35,2.88-6.35,6.42s2.85,6.45,6.29,6.45,6.48-2.82,6.48-6.48-2.85-6.38-6.42-6.38m-.1,15.97c-5.11,0-9.66-4.35-9.66-9.46,0-5.53,4.35-9.62,9.92-9.62,5.01,0,9.72,3.93,9.66,9.69-.07,4.84-4.12,9.39-9.92,9.39"/></g><path class="cls-1" d="M72.28,105.58l-7.27-9.39,6.45-8.74h4.03l-6.58,8.54,7.63,9.59h-4.26Zm-10.74-24.22h3.41v24.22h-3.41v-24.22Z"/><polygon class="cls-1" points="198.48 105.58 191.28 87.44 194.92 87.44 199.66 100.41 199.73 100.41 204.38 87.44 208.01 87.44 200.87 105.58 198.48 105.58"/><g><path class="cls-1" d="M230.33,105.58v-18.14h3.17v1.64h.07c.82-1.21,2.23-2,4.62-2.13v3.5c-2.95,.1-4.45,1.9-4.45,4.94v10.18h-3.4Z"/><path class="cls-1" d="M248.27,92.26c-.16-1.31-.92-2.19-2.32-2.19-1.31,0-2.13,.88-2.13,1.93,0,1.54,1.57,2,3.37,2.55,2.55,.79,4.91,2.33,4.91,5.7s-2.55,5.79-6.09,5.79c-3.27,0-6.42-2.23-6.42-6.42h3.4c.16,2.19,1.28,3.31,3.08,3.31,1.57,0,2.62-1.02,2.62-2.49,0-1.24-.95-2.06-3.08-2.75-4.45-1.41-5.2-3.34-5.2-5.4,0-3.21,2.72-5.34,5.7-5.34s5.47,2.1,5.56,5.3h-3.4Z"/></g><polygon class="cls-1" points="262.71 105.58 262.71 90.55 260.25 90.55 260.25 87.44 262.71 87.44 262.71 81.35 266.11 81.35 266.11 87.44 269.09 87.44 269.09 90.55 266.11 90.55 266.11 105.58 262.71 105.58"/><polygon class="cls-1" points="274.6 111.64 277.25 105.22 270.02 87.44 273.68 87.44 279.02 101.52 284.49 87.44 288.15 87.44 278.14 111.64 274.6 111.64"/><path class="cls-1" d="M220.57,60.9c-.08,0-.15,0-.23,0-1.67-.09-2.69-1.2-2.85-3.3h-3.4c0,4.12,3.04,6.34,6.25,6.41,.05,0,.11,0,.16,0,3.54,0,6.09-2.29,6.09-5.79s-2.36-4.91-4.91-5.7c-.47-.15-.93-.29-1.34-.44-1.18-.43-2.03-.98-2.03-2.11,0-1.02,.78-1.89,2.03-1.93,.03,0,.06,0,.1,0,1.41,0,2.16,.88,2.32,2.19h3.4c-.1-3.21-2.55-5.3-5.56-5.3-.09,0-.17,0-.26,0-2.87,.12-5.43,2.22-5.43,5.33,0,2.06,.75,3.99,5.21,5.4,.08,.03,.15,.05,.23,.08,1.97,.67,2.85,1.48,2.85,2.67,0,1.47-1.05,2.49-2.62,2.49"/><polygon class="cls-1" points="85.63 90.06 82.15 90.06 82.14 87.48 78.76 87.48 78.76 105.62 82.16 105.62 82.15 93.16 85.63 93.16 85.63 90.06"/><g><path class="cls-1" d="M98.79,86.99c-2.88,0-4.68,.98-5.99,3.04-.92-1.9-3.27-3.04-5.63-3.04-.12,0-1.54,0-1.54,0v3.06h1.18c2.37,.06,3.96,1.53,3.96,5.02v10.54h3.41v-10.21c0-3.63,1.31-5.3,4.32-5.3,2.85,0,4.29,1.93,4.29,5.37v10.15h3.41v-11c0-4.68-2.68-7.63-7.4-7.63"/><path class="cls-1" d="M79.71,57.81c-1.41,3.73-4.81,6.15-8.71,6.15-4.64,0-8.47-3.74-9.13-8.05h3.3c.79,3.01,3.18,4.94,5.96,4.94,2.13,0,4.12-1.11,5.17-3.04h3.41Z"/><path class="cls-1" d="M70.9,44.87c-4.44,0-8.46,3.4-9.06,8.41h3.33c.26-3.11,3.04-5.3,5.83-5.3s5.63,2.23,5.89,5.3h-11.72v2.62h15.03c.1-.62,.1-1.15,.1-1.7,0-5.21-4.06-9.33-9.39-9.33"/><path class="cls-1" d="M226.67,99.88c-1.41,3.73-4.81,6.15-8.71,6.15-4.64,0-8.47-3.74-9.13-8.05h3.3c.79,3.01,3.18,4.94,5.96,4.94,2.13,0,4.12-1.11,5.17-3.04h3.4Z"/><path class="cls-1" d="M217.86,86.95c-4.44,0-8.46,3.4-9.06,8.41h3.33c.26-3.11,3.04-5.3,5.83-5.3s5.63,2.23,5.89,5.3h-11.72v2.62h15.03c.1-.62,.1-1.15,.1-1.7,0-5.21-4.06-9.33-9.39-9.33"/><path class="cls-1" d="M122.35,57.81c-1.41,3.73-4.81,6.15-8.71,6.15-4.64,0-8.47-3.74-9.13-8.05h3.3c.79,3.01,3.18,4.94,5.96,4.94,2.13,0,4.12-1.11,5.17-3.04h3.41Z"/><path class="cls-1" d="M113.55,44.87c-4.44,0-8.46,3.4-9.06,8.41h3.33c.26-3.11,3.04-5.3,5.83-5.3s5.63,2.23,5.89,5.3h-11.72v2.62h15.03c.1-.62,.1-1.15,.1-1.7,0-5.21-4.06-9.33-9.39-9.33"/><path class="cls-1" d="M203.03,5.65h-2.86v3.11h2.64c3.5,0,6.22,3.01,6.22,6.45s-2.85,6.42-6.19,6.42-6.09-2.88-6.09-6.48V.05h-3.4V24.28h3.37v-2.62h.07c1.51,2.03,3.93,3.08,6.55,3.08,5.11,0,9.1-4.45,9.1-9.53s-4.26-9.56-9.4-9.56"/></g><rect class="cls-1" x="196.75" y="8.77" width="3.42" height="3.25"/><polygon class="cls-1" points="278.75 66.66 279.59 60.4 282.91 60.4 281.37 66.66 278.75 66.66"/><path class="cls-1" d="M229.31,44.59h3.42v18.97h-3.42v-18.97Zm0-5.36h3.42v3.25h-3.42v-3.25Z"/><path class="cls-1" d="M110.21,86.61h3.42v18.97h-3.42v-18.97Zm0-5.36h3.42v3.25h-3.42v-3.25Z"/><path class="cls-1" d="M233.08,5.36h3.42V24.33h-3.42V5.36Zm0-5.36h3.42V3.25h-3.42V0Z"/><path class="cls-1" d="M215.53,5.36h3.42V24.33h-3.42V5.36Zm0-5.36h3.42V3.25h-3.42V0Z"/><path class="cls-1" d="M185.71,5.36h3.42V24.33h-3.42V5.36Zm0-5.36h3.42V3.25h-3.42V0Z"/><path class="cls-1" d="M185.58,86.61h3.42v18.97h-3.42v-18.97Zm0-5.36h3.42v3.25h-3.42v-3.25Z"/><path class="cls-1" d="M254.68,86.61h3.42v18.97h-3.42v-18.97Zm0-5.36h3.42v3.25h-3.42v-3.25Z"/><polygon class="cls-1" points="266 47.93 262.57 47.93 262.56 45.34 259.16 45.34 259.16 63.56 262.58 63.56 262.57 51.05 266 51.05 266 47.93"/><g><path class="cls-1" d="M267.74,44.85c-.17,0-1.74,.02-1.74,.02v3.11s1.34,0,1.38,0c3.03,0,4.54,1.81,4.54,5.65v9.93h3.42v-10.91c0-5.03-3.22-7.79-7.59-7.79"/><path class="cls-1" d="M251.52,55.93c-.62,2.53-2.84,4.97-6.17,4.97s-6.25-2.95-6.25-6.41,2.85-6.5,6.22-6.5h2.96v3.41h3.42v3.09c0,.47-.06,.96-.18,1.44m.18-10.51v2.56h-3.42v-3.05h-2.87c-5.47,0-9.72,4.22-9.72,9.69,0,4.91,4.48,9.39,9.69,9.39,2.59,0,4.85-.95,6.25-2.85h.07c0,4.16-2.19,6.42-6.35,6.42-2.23,0-3.93-.82-5.2-2.62h-3.8c1.54,3.54,4.81,5.73,8.97,5.73,6.15,0,9.79-3.63,9.79-9.53v-15.75h-3.4Z"/><path class="cls-1" d="M98.25,55.88c-.62,2.53-2.84,4.97-6.17,4.97s-6.25-2.95-6.25-6.41,2.85-6.5,6.22-6.5h2.96v3.41h3.42v3.09c0,.47-.06,.96-.18,1.44m.18-10.51v2.56h-3.42v-3.05h-2.87c-5.47,0-9.72,4.22-9.72,9.69,0,4.91,4.48,9.39,9.69,9.39,2.59,0,4.85-.95,6.25-2.85h.07c0,4.16-2.19,6.42-6.35,6.42-2.23,0-3.93-.82-5.2-2.62h-3.8c1.54,3.54,4.81,5.73,8.97,5.73,6.15,0,9.79-3.63,9.79-9.53v-15.75h-3.4Z"/><path class="cls-1" d="M179.65,39.33h-1.46v3.24h.97c4.94,0,8.78,3.5,8.78,8.94s-3.34,8.81-8.94,8.81h-4.22v-17.74h-3.54v20.98h7.89c7.66,0,12.34-4.71,12.34-12.11,0-6.32-4.48-12.11-11.82-12.11"/></g><rect class="cls-1" x="174.78" y="42.57" width="3.42" height="3.42"/><polygon class="cls-1" points="124.48 90 121.05 90 121.04 87.41 117.64 87.41 117.64 105.62 121.06 105.62 121.05 93.11 124.48 93.11 124.48 90"/><path class="cls-1" d="M126.22,86.91c-.17,0-1.74,.02-1.74,.02v3.11s1.34,0,1.38,0c3.03,0,4.54,1.81,4.54,5.65v9.93h3.42v-10.91c0-5.03-3.22-7.79-7.59-7.79"/><polygon class="cls-1" points="269.08 8.69 265.64 8.69 265.64 6.1 262.24 6.1 262.24 24.32 265.66 24.32 265.64 11.81 269.08 11.81 269.08 8.69"/><path class="cls-1" d="M270.82,5.61c-.17,0-1.74,.02-1.74,.02v3.11s1.34,0,1.38,0c3.03,0,4.54,1.81,4.54,5.65v9.93h3.42V13.4c0-5.03-3.22-7.79-7.59-7.79"/><polygon class="cls-1" points="172.26 90 168.82 90 168.82 87.41 165.42 87.41 165.42 105.62 168.84 105.62 168.83 93.11 172.26 93.11 172.26 90"/><g><path class="cls-1" d="M174,86.91c-.17,0-1.74,.02-1.74,.02v3.11s1.34,0,1.38,0c3.03,0,4.54,1.81,4.54,5.65v9.93h3.42v-10.91c0-5.03-3.22-7.79-7.59-7.79"/><path class="cls-1" d="M154.92,63.5v-15.03h-1.6v-3.11h1.6v-.82c0-3.47,2.45-5.27,5.83-5.27h.75v3.11c-2.23,0-3.18,.79-3.18,2.13v.85h3.18v3.11h-3.18v15.03h-3.4Z"/><path class="cls-1" d="M111.51,5.65c-.17,0-1.74,.02-1.74,.02v3.1s1.33,0,1.38,0c3.01,0,4.52,1.8,4.52,5.63v9.89h3.4V13.41c0-5.01-3.21-7.76-7.56-7.76"/></g><polygon class="cls-1" points="109.78 11.82 109.78 8.72 106.37 8.72 106.37 .05 102.97 .05 102.97 6.14 102.97 24.28 106.37 24.28 106.37 24.18 106.37 11.82 109.78 11.82"/><path class="cls-1" d="M174.2,5.65c-.17,0-1.74,.02-1.74,.02v3.1s1.33,0,1.38,0c3.01,0,4.52,1.8,4.52,5.63v9.89h3.4V13.41c0-5.01-3.21-7.76-7.56-7.76"/><polygon class="cls-1" points="172.46 11.82 172.46 8.72 169.06 8.72 169.06 .05 165.65 .05 165.65 6.14 165.65 24.28 169.06 24.28 169.06 24.18 169.06 11.82 172.46 11.82"/><path class="cls-1" d="M24.06,5.65c-.17,0-1.74,.02-1.74,.02v3.1s1.33,0,1.38,0c3.01,0,4.52,1.8,4.52,5.63v9.89h3.4V13.41c0-5.01-3.21-7.76-7.56-7.76"/><polygon class="cls-1" points="22.32 11.82 22.32 8.72 18.92 8.72 18.92 .05 15.51 .05 15.51 6.14 15.51 24.28 18.92 24.28 18.92 24.18 18.92 11.82 22.32 11.82"/><path class="cls-1" d="M157.67,81.36v16.3s0,.8,0,1.85h-3.43v3.23c-.23,.04-.9,.05-1.15,.05-2.88,0-4.59-2.13-4.59-5.14v-16.3h-3.54v16.56c0,5.04,3.57,8.12,8.12,8.12,.25,0,.91,0,1.15-.03v-3.25h3.43c0,1.72,0,3.23,0,3.27h3.54v-24.68h-3.53Z"/></g></g></svg>