<?xml version="1.0" encoding="UTF-8"?><svg id="Layer_2" xmlns="http://www.w3.org/2000/svg" viewBox="0 0 337.17 78.79"><defs><style>.cls-1{fill:#fff;}</style></defs><g id="Layer_1-2"><g><g><path class="cls-1" d="M308.87,57.85c0,3.24,2.46,5.66,5.76,5.66s5.76-2.42,5.76-5.66-2.46-5.63-5.76-5.63-5.76,2.4-5.76,5.63m5.66-10.84c7.06,0,11.89,4.64,11.89,11.46,0,3.73-1.32,7.23-4.47,11.68-1.02,1.53-5.74,7.64-6.56,8.63h-6.91l7.81-10.36c.84-1.14,1.19-1.66,1.42-2.18l-.43-.07c-1.14,1.19-3.02,1.9-4.96,1.9-5.53,0-9.54-4.19-9.54-10.02,0-6.3,5.05-11.05,11.74-11.05"/><path class="cls-1" d="M11.06,.04C17.5,.04,21.84,3.52,21.84,8.68c0,3.26-1.79,6.04-7.06,10.87l-6.09,5.55v.37h13.63v4.93H.35v-4.1l10.15-9.59c4.26-4.06,5.36-5.63,5.36-7.63,0-2.58-1.97-4.27-4.99-4.27s-5.16,1.94-5.16,4.78v.14H0v-.12C0,3.92,4.52,.04,11.06,.04"/><path class="cls-1" d="M37.23,0V4.84c3.7,0,5.71,3.76,5.71,10.66s-2.01,10.65-5.71,10.66v4.85c7.49,0,11.72-5.59,11.72-15.51S44.72,0,37.23,0"/><path class="cls-1" d="M63.11,.04c6.44,0,10.78,3.48,10.78,8.64,0,3.26-1.79,6.04-7.06,10.87l-6.09,5.55v.37h13.63v4.93h-21.97v-4.1l10.15-9.59c4.26-4.06,5.36-5.63,5.36-7.63,0-2.58-1.97-4.27-4.99-4.27s-5.16,1.94-5.16,4.78v.14h-5.7v-.12C52.05,3.92,56.57,.04,63.11,.04"/><path class="cls-1" d="M89.14,.04c6.44,0,10.78,3.48,10.78,8.64,0,3.26-1.79,6.04-7.07,10.87l-6.09,5.55v.37h13.63v4.93h-21.97v-4.1l10.15-9.59c4.26-4.06,5.36-5.63,5.36-7.63,0-2.58-1.97-4.27-4.99-4.27s-5.16,1.94-5.16,4.78v.14h-5.7v-.12C78.08,3.92,82.59,.04,89.14,.04"/></g><rect class="cls-1" x="103.79" y="22.96" width="6.77" height="7.43"/><polygon class="cls-1" points="114.79 30.39 114.79 25.5 123.2 25.5 123.2 6.45 122.81 6.45 114.77 11.54 114.77 6.02 123.2 .64 129.2 .64 129.2 25.5 137.17 25.5 137.17 30.39 114.79 30.39"/><polygon class="cls-1" points="140.82 30.39 140.82 25.5 149.22 25.5 149.22 6.45 148.83 6.45 140.8 11.54 140.8 6.02 149.22 .64 155.23 .64 155.23 25.5 163.2 25.5 163.2 30.39 140.82 30.39"/><rect class="cls-1" x="166.95" y="22.96" width="6.77" height="7.43"/><polygon class="cls-1" points="177.95 30.39 177.95 25.5 186.36 25.5 186.36 6.45 185.97 6.45 177.93 11.54 177.93 6.02 186.36 .64 192.36 .64 192.36 25.5 200.33 25.5 200.33 30.39 177.95 30.39"/><rect class="cls-1" x="230.33" y="22.96" width="6.77" height="7.43"/><polygon class="cls-1" points="213.1 77.74 213.1 72.85 221.51 72.85 221.51 53.79 221.12 53.79 213.08 58.88 213.08 53.36 221.51 47.97 227.52 47.97 227.52 72.85 235.5 72.85 235.5 77.74 213.1 77.74"/><polygon class="cls-1" points="239.14 77.74 239.14 72.85 247.55 72.85 247.55 53.79 247.16 53.79 239.12 58.88 239.12 53.36 247.55 47.97 253.56 47.97 253.56 72.85 261.54 72.85 261.54 77.74 239.14 77.74"/><rect class="cls-1" x="266.17" y="70.3" width="6.77" height="7.44"/><polygon class="cls-1" points="277.18 77.74 277.18 72.85 285.59 72.85 285.59 53.79 285.2 53.79 277.16 58.88 277.16 53.36 285.59 47.97 291.6 47.97 291.6 72.85 299.58 72.85 299.58 77.74 277.18 77.74"/><rect class="cls-1" x="330.4" y="70.53" width="6.77" height="7.44"/><rect class="cls-1" x="32.14" y="4.84" width="5.09" height="4.84"/><g><path class="cls-1" d="M37.22,26.16c-3.7,0-5.71-3.73-5.71-10.66,0-2.31,.23-4.25,.67-5.83h-6.07c-.39,1.73-.61,3.67-.61,5.83,0,9.92,4.23,15.51,11.72,15.51h0v-4.85h0Z"/><path class="cls-1" d="M214.26,0V4.84c3.7,0,5.71,3.76,5.71,10.66s-2.01,10.65-5.71,10.66v4.85c7.49,0,11.72-5.59,11.72-15.51S221.74,0,214.26,0"/></g><rect class="cls-1" x="209.17" y="4.84" width="5.09" height="4.84"/><path class="cls-1" d="M214.25,26.16c-3.7,0-5.71-3.73-5.71-10.66,0-2.31,.23-4.25,.67-5.83h-6.07c-.39,1.73-.61,3.67-.61,5.83,0,9.92,4.24,15.51,11.72,15.51h0v-4.85h0Z"/><rect class="cls-1" x="112.29" y="67.24" width="54.01" height="4.64"/><rect class="cls-1" x="166.31" y="62.62" width="34.92" height="4.64"/></g></g></svg>