<?xml version="1.0" encoding="UTF-8"?><svg id="Layer_2" xmlns="http://www.w3.org/2000/svg" viewBox="0 0 925.82 179.32"><defs><style>.cls-1{fill:#fff;}</style></defs><g id="Layer_1-2"><g><polygon class="cls-1" points="746.42 49.56 415.46 49.56 415.45 34.82 396.09 34.82 396.09 138.51 415.55 138.51 415.48 67.3 746.42 67.3 746.42 49.56"/><path class="cls-1" d="M756.34,32.01c-.95,0-9.92,.09-9.92,.09v17.7s7.6,0,7.86,0c17.22,0,25.83,10.29,25.83,32.19v56.53h19.47v-62.14c0-28.64-18.34-44.36-43.24-44.36"/><polygon class="cls-1" points="0 0 0 138.51 68.32 138.51 68.32 119.98 19.82 119.98 19.82 0 0 0"/><path class="cls-1" d="M87.79,138.51h19.47V30.5h-19.47v108.01Zm0-119.99h19.47V0h-19.47V18.52Z"/><path class="cls-1" d="M314.55,34.82l-36.87,49.98,41.55,53.72h24.33l-43.61-54.84,37.62-48.85h-23.02Zm-56.71,103.7h19.47V0h-19.47V138.51Z"/><path class="cls-1" d="M357.15,138.51h19.47V30.5h-19.47v108.01Zm0-119.99h19.47V0h-19.47V18.52Z"/><polygon class="cls-1" points="186.48 49.56 147.46 49.56 147.44 34.82 128.08 34.82 128.08 138.51 147.54 138.51 147.47 67.3 186.48 67.3 186.48 49.56"/><g><path class="cls-1" d="M196.4,32.01c-.95,0-9.92,.09-9.92,.09v17.7s7.6,0,7.86,0c17.22,0,25.83,10.29,25.83,32.19v56.53h19.47v-62.14c0-28.64-18.34-44.36-43.24-44.36"/><path class="cls-1" d="M870.04,123.34h0c-19.3,0-35.77-16.85-35.77-36.69,0-.51,0-.99,.03-1.46,.75-19.57,16.74-35.39,35.53-35.39,17.6,0,35.77,12.01,36.48,35.39,.03,.48,.03,.95,.03,1.46,0,16.84-13.68,36.69-36.31,36.69m36.31-88.52v11.98c-8.24-9.19-22.46-14.8-35.94-14.8-30.53,0-54.45,23.01-55.54,53.19-.07,.71-.07,1.46-.07,2.21,0,28.08,25.66,53.74,55.4,53.74,14.8,0,27.7-5.45,35.77-16.3h.37c0,23.79-12.56,36.69-36.31,36.69-12.73,0-22.46-4.66-29.78-14.97h-21.71c8.82,20.21,27.53,32.77,51.29,32.77,35.19,0,55.98-20.79,55.98-54.48V34.82h-19.47Z"/></g></g></g></svg>